<svg width="112" height="86" viewBox="0 0 112 86" fill="none" xmlns="http://www.w3.org/2000/svg">
<g clip-path="url(#clip0_458_712)">
<path d="M111.202 10.4829H90.7178C90.2771 10.4829 89.9199 10.8401 89.9199 11.2808C89.9199 11.7214 90.2771 12.0786 90.7178 12.0786H111.202C111.643 12.0786 112 11.7214 112 11.2808C112 10.8401 111.643 10.4829 111.202 10.4829Z" fill="#414141"/>
<path d="M77.5251 10.4829H65.6819C65.2413 10.4829 64.884 10.8401 64.884 11.2808V11.3155C64.884 11.7561 65.2413 12.1133 65.6819 12.1133H77.5251C77.9657 12.1133 78.3229 11.7561 78.3229 11.3155V11.2808C78.3229 10.8401 77.9657 10.4829 77.5251 10.4829Z" fill="#414141"/>
<path d="M85.32 10.4829H80.6265C80.1858 10.4829 79.8286 10.8401 79.8286 11.2808C79.8286 11.7214 80.1858 12.0786 80.6265 12.0786H85.32C85.7607 12.0786 86.1179 11.7214 86.1179 11.2808C86.1179 10.8401 85.7607 10.4829 85.32 10.4829Z" fill="#414141"/>
<path d="M87.2558 83.3218H8.63789C8.12635 83.3218 7.71167 83.7365 7.71167 84.248C7.71167 84.7595 8.12635 85.1742 8.63789 85.1742H87.2558C87.7673 85.1742 88.182 84.7595 88.182 84.248C88.182 83.7365 87.7673 83.3218 87.2558 83.3218Z" fill="#414141" stroke="#414141" stroke-width="0.75" stroke-miterlimit="10"/>
<path d="M0.693848 58.626H89.6077V67.961C89.6072 68.5209 89.4963 69.0751 89.2814 69.5921C89.0664 70.109 88.7515 70.5784 88.3549 70.9735C87.9582 71.3685 87.4875 71.6815 86.9697 71.8943C86.4519 72.1072 85.8972 72.2158 85.3373 72.214H4.96418C4.40434 72.2158 3.84964 72.1072 3.33185 71.8943C2.81405 71.6815 2.34334 71.3685 1.94667 70.9735C1.54999 70.5784 1.23515 70.109 1.02017 69.5921C0.805192 69.0751 0.694301 68.5209 0.693848 67.961V58.626Z" fill="#FFE031" stroke="#414141" stroke-width="2" stroke-miterlimit="10"/>
<path d="M17.4802 84.248C21.312 84.248 24.4182 81.1418 24.4182 77.3101C24.4182 73.4783 21.312 70.3721 17.4802 70.3721C13.6485 70.3721 10.5422 73.4783 10.5422 77.3101C10.5422 81.1418 13.6485 84.248 17.4802 84.248Z" fill="#F2F2F2" stroke="#414141" stroke-width="2" stroke-miterlimit="10"/>
<path d="M73.1856 84.248C77.0173 84.248 80.1235 81.1418 80.1235 77.3101C80.1235 73.4783 77.0173 70.3721 73.1856 70.3721C69.3538 70.3721 66.2476 73.4783 66.2476 77.3101C66.2476 81.1418 69.3538 84.248 73.1856 84.248Z" fill="#F2F2F2" stroke="#414141" stroke-width="2" stroke-miterlimit="10"/>
<path d="M57.4667 7.43668L57.4813 8.16559L58.1798 8.37458C77.2835 14.0907 90.5635 32.6636 89.0251 53.1121L45.9547 48.8715L45.9546 48.8715L2.88088 44.6275C5.49811 23.1707 23.8542 6.9721 45.1152 6.58475L45.8443 6.57147L46.0545 5.87321C46.4549 4.54315 47.3171 3.39975 48.4857 2.6489C49.6543 1.89804 51.0526 1.58907 52.4288 1.77761C53.805 1.96614 55.0686 2.63981 55.9922 3.67729C56.9158 4.71478 57.4387 6.04793 57.4667 7.43668Z" fill="#FFE031" stroke="#414141" stroke-width="2" stroke-miterlimit="10"/>
<path d="M103.467 57H94.9158C94.41 57 94 57.41 94 57.9158C94 58.4216 94.41 58.8316 94.9158 58.8316H103.467C103.973 58.8316 104.383 58.4216 104.383 57.9158C104.383 57.41 103.973 57 103.467 57Z" fill="#414141"/>
<path d="M107.501 83H93.4995C92.6714 83 92 83.6716 92 84.5C92 85.3284 92.6714 86 93.4995 86H107.501C108.329 86 109 85.3284 109 84.5C109 83.6716 108.329 83 107.501 83Z" fill="#414141"/>
<path d="M59 14.5C65.3333 16.1667 78.9 24.2 82.5 43" stroke="#414141" stroke-width="2" stroke-linecap="round"/>
</g>
<defs>
<clipPath id="clip0_458_712">
<rect width="112" height="85.3061" fill="white"/>
</clipPath>
</defs>
</svg>
